<mxfile host="app.diagrams.net" agent="Mozilla/5.0 (Windows NT 10.0; Win64; x64; rv:143.0) Gecko/20100101 Firefox/143.0" version="28.2.1">
  <diagram name="第 1 页" id="tgvovVEnhONPobJNt0wj">
    <mxGraphModel dx="948" dy="518" grid="1" gridSize="10" guides="1" tooltips="1" connect="1" arrows="1" fold="1" page="1" pageScale="1" pageWidth="827" pageHeight="1169" math="0" shadow="0">
      <root>
        <mxCell id="0" />
        <mxCell id="1" parent="0" />
        <mxCell id="aG_tTBvKwhRzEmQABKM8-12" value="" style="edgeStyle=orthogonalEdgeStyle;rounded=0;orthogonalLoop=1;jettySize=auto;html=1;fontFamily=Helvetica;fontSize=12;fontColor=default;curved=1;entryX=1;entryY=0.5;entryDx=0;entryDy=0;" edge="1" parent="1" source="aG_tTBvKwhRzEmQABKM8-1" target="aG_tTBvKwhRzEmQABKM8-11">
          <mxGeometry relative="1" as="geometry" />
        </mxCell>
        <mxCell id="aG_tTBvKwhRzEmQABKM8-15" style="edgeStyle=orthogonalEdgeStyle;shape=connector;curved=1;rounded=0;orthogonalLoop=1;jettySize=auto;html=1;entryX=1;entryY=0.5;entryDx=0;entryDy=0;strokeColor=default;align=center;verticalAlign=middle;fontFamily=Helvetica;fontSize=11;fontColor=default;labelBackgroundColor=default;startArrow=none;endArrow=block;" edge="1" parent="1" source="aG_tTBvKwhRzEmQABKM8-1" target="aG_tTBvKwhRzEmQABKM8-13">
          <mxGeometry relative="1" as="geometry" />
        </mxCell>
        <mxCell id="aG_tTBvKwhRzEmQABKM8-16" style="edgeStyle=orthogonalEdgeStyle;shape=connector;curved=1;rounded=0;orthogonalLoop=1;jettySize=auto;html=1;strokeColor=default;align=center;verticalAlign=middle;fontFamily=Helvetica;fontSize=11;fontColor=default;labelBackgroundColor=default;startArrow=none;endArrow=block;" edge="1" parent="1" source="aG_tTBvKwhRzEmQABKM8-1" target="aG_tTBvKwhRzEmQABKM8-14">
          <mxGeometry relative="1" as="geometry" />
        </mxCell>
        <mxCell id="aG_tTBvKwhRzEmQABKM8-1" value="数据采集" style="whiteSpace=wrap;strokeWidth=2;direction=east;" vertex="1" parent="1">
          <mxGeometry x="514" y="140" width="106" height="34" as="geometry" />
        </mxCell>
        <mxCell id="aG_tTBvKwhRzEmQABKM8-2" value="数据存储" style="rounded=0;arcSize=20;strokeWidth=2;direction=east;" vertex="1" parent="1">
          <mxGeometry x="450" y="249" width="106" height="34" as="geometry" />
        </mxCell>
        <mxCell id="aG_tTBvKwhRzEmQABKM8-3" value="数据管理" style="whiteSpace=wrap;strokeWidth=2;direction=east;" vertex="1" parent="1">
          <mxGeometry x="450" y="378" width="106" height="34" as="geometry" />
        </mxCell>
        <mxCell id="aG_tTBvKwhRzEmQABKM8-4" value="数据使用" style="whiteSpace=wrap;strokeWidth=2;direction=east;" vertex="1" parent="1">
          <mxGeometry x="514" y="507" width="106" height="34" as="geometry" />
        </mxCell>
        <mxCell id="aG_tTBvKwhRzEmQABKM8-5" value="保存数据" style="curved=1;startArrow=none;endArrow=block;exitX=0.28;exitY=1;entryX=0.5;entryY=0;rounded=0;exitDx=0;exitDy=0;entryDx=0;entryDy=0;" edge="1" parent="1" source="aG_tTBvKwhRzEmQABKM8-1" target="aG_tTBvKwhRzEmQABKM8-2">
          <mxGeometry relative="1" as="geometry">
            <Array as="points">
              <mxPoint x="512" y="212" />
            </Array>
          </mxGeometry>
        </mxCell>
        <mxCell id="aG_tTBvKwhRzEmQABKM8-6" value="提供数据" style="curved=1;startArrow=none;endArrow=block;exitX=0.5;exitY=1;entryX=0.5;entryY=0;rounded=0;exitDx=0;exitDy=0;entryDx=0;entryDy=0;" edge="1" parent="1" source="aG_tTBvKwhRzEmQABKM8-2" target="aG_tTBvKwhRzEmQABKM8-3">
          <mxGeometry relative="1" as="geometry">
            <Array as="points" />
          </mxGeometry>
        </mxCell>
        <mxCell id="aG_tTBvKwhRzEmQABKM8-7" value="可信数据" style="curved=1;startArrow=none;endArrow=block;exitX=0.5;exitY=1;entryX=0.28;entryY=0;rounded=0;exitDx=0;exitDy=0;entryDx=0;entryDy=0;" edge="1" parent="1" source="aG_tTBvKwhRzEmQABKM8-3" target="aG_tTBvKwhRzEmQABKM8-4">
          <mxGeometry relative="1" as="geometry">
            <Array as="points">
              <mxPoint x="512" y="470" />
            </Array>
          </mxGeometry>
        </mxCell>
        <mxCell id="aG_tTBvKwhRzEmQABKM8-8" value="反馈采集策略" style="curved=1;dashed=1;dashPattern=2 3;startArrow=none;endArrow=block;exitX=0.72;exitY=0;entryX=0.72;entryY=1;rounded=0;exitDx=0;exitDy=0;entryDx=0;entryDy=0;" edge="1" parent="1" source="aG_tTBvKwhRzEmQABKM8-4" target="aG_tTBvKwhRzEmQABKM8-1">
          <mxGeometry relative="1" as="geometry">
            <Array as="points">
              <mxPoint x="640" y="470" />
              <mxPoint x="640" y="212" />
            </Array>
          </mxGeometry>
        </mxCell>
        <mxCell id="aG_tTBvKwhRzEmQABKM8-11" value="选择数据源" style="whiteSpace=wrap;html=1;strokeWidth=2;strokeColor=default;align=center;verticalAlign=middle;fontFamily=Helvetica;fontSize=12;fontColor=default;fillColor=default;flipV=1;flipH=1;dashed=1;dashPattern=1 1;" vertex="1" parent="1">
          <mxGeometry x="290" y="70" width="106" height="34" as="geometry" />
        </mxCell>
        <mxCell id="aG_tTBvKwhRzEmQABKM8-13" value="批量采集" style="whiteSpace=wrap;html=1;strokeWidth=2;strokeColor=default;align=center;verticalAlign=middle;fontFamily=Helvetica;fontSize=12;fontColor=default;fillColor=default;flipV=1;flipH=1;dashed=1;dashPattern=1 1;" vertex="1" parent="1">
          <mxGeometry x="290" y="120" width="106" height="34" as="geometry" />
        </mxCell>
        <mxCell id="aG_tTBvKwhRzEmQABKM8-14" value="实时采集" style="whiteSpace=wrap;html=1;strokeWidth=2;strokeColor=default;align=center;verticalAlign=middle;fontFamily=Helvetica;fontSize=12;fontColor=default;fillColor=default;flipV=1;flipH=1;dashed=1;dashPattern=1 1;" vertex="1" parent="1">
          <mxGeometry x="290" y="174" width="106" height="34" as="geometry" />
        </mxCell>
      </root>
    </mxGraphModel>
  </diagram>
</mxfile>
